<svg viewBox="0 -23 512 512" width="24px" xmlns="http://www.w3.org/2000/svg"><path d="m15 273.855469v-237.28125c0-11.894531 9.949219-21.574219 22.183594-21.574219h437.636718c12.230469 0 22.179688 9.679688 22.179688 21.574219v237.28125zm0 0" fill="#dce1ea"/><path d="m37.179688 15c-12.230469 0-22.179688 9.679688-22.179688 21.574219v237.28125h241v-258.855469zm0 0" fill="#f3f5fb"/><path d="m211.359375 373.464844h89.277344v77.230468h-89.277344zm0 0" fill="#9196a9"/><path d="m211.359375 373.464844h44.640625v77.230468h-44.640625zm0 0" fill="#afb4c8"/><path d="m395.832031 466.042969h-279.664062c-8.476563 0-15.347657-6.871094-15.347657-15.347657 0-8.476562 6.871094-15.347656 15.347657-15.347656h279.664062c8.476563 0 15.347657 6.871094 15.347657 15.347656 0 8.476563-6.871094 15.347657-15.347657 15.347657zm0 0" fill="#bec3d2"/><path d="m0 340.09375c0 20.199219 16.648438 36.574219 37.179688 36.574219h437.636718c20.535156 0 37.183594-16.375 37.183594-36.574219v-51.238281l-254.179688-20-257.820312 20zm0 0" fill="#bec3d2"/><path d="m151.335938 166.667969h-33.042969c-30.898438 0-55.941407 25.046875-55.941407 55.941406v36.195313h144.925782v-36.195313c0-30.894531-25.046875-55.941406-55.941406-55.941406zm0 0" fill="#1c7bc0"/><path d="m177.320312 115.15625c0 23.476562-19.03125 42.507812-42.507812 42.507812s-42.507812-19.03125-42.507812-42.507812 19.03125-42.507812 42.507812-42.507812 42.507812 19.03125 42.507812 42.507812zm0 0" fill="#1c7bc0"/><path d="m310.339844 200.894531h124.894531c15.351563 0 27.792969-12.441406 27.792969-27.789062v-92.175781c0-15.347657-12.441406-27.792969-27.792969-27.792969h-124.894531c-15.351563 0-27.792969 12.445312-27.792969 27.792969v92.175781c0 15.347656 12.441406 27.789062 27.792969 27.789062zm0 0" fill="#e01f26"/><path d="m0 288.855469v51.242187c0 20.199219 16.648438 36.574219 37.179688 36.574219h218.820312v-107.816406zm0 0" fill="#ced2e1"/><path d="m116.167969 435.347656c-8.476563 0-15.347657 6.871094-15.347657 15.347656 0 8.476563 6.871094 15.347657 15.347657 15.347657h139.832031v-30.695313zm0 0" fill="#ced2e1"/><path d="m474.820312 30c3.957032 0 7.179688 2.949219 7.179688 6.574219v222.28125h-452v-222.28125c0-3.625 3.222656-6.574219 7.179688-6.574219zm0-30h-437.640624c-20.53125 0-37.179688 16.375-37.179688 36.574219v252.28125h512v-252.28125c0-20.199219-16.648438-36.574219-37.179688-36.574219zm0 0" fill="#333940"/><path d="m30 258.855469v-222.28125c0-3.625 3.222656-6.574219 7.179688-6.574219h218.820312v-30h-218.820312c-20.53125 0-37.179688 16.375-37.179688 36.574219v252.28125h256v-30zm0 0" fill="#525a67"/><path d="m310.339844 53.136719c-15.351563 0-27.792969 12.441406-27.792969 27.792969v92.171874c0 15.351563 12.441406 27.792969 27.792969 27.792969h62.445312v-147.757812zm0 0" fill="#ff432e"/><path d="m408.800781 175.652344c-3.792969 0-7.53125-1.402344-10.421875-4.078125l-46.253906-42.753907v31.484376c0 8.476562-6.871094 15.347656-15.347656 15.347656-8.476563 0-15.347656-6.871094-15.347656-15.347656v-66.574219c0-6.097657 3.609374-11.621094 9.199218-14.0625 5.585938-2.445313 12.089844-1.347657 16.566406 2.792969l46.253907 42.753906v-31.484375c0-8.476563 6.871093-15.347657 15.347656-15.347657s15.347656 6.871094 15.347656 15.347657v66.574219c0 6.097656-3.609375 11.617187-9.199219 14.0625-1.976562.863281-4.070312 1.285156-6.144531 1.285156zm0 0" fill="#ffc247"/><path d="m347.195312 82.460938c-4.476562-4.140626-10.980468-5.238282-16.566406-2.792969-5.589844 2.445312-9.199218 7.964843-9.199218 14.0625v66.574219c0 8.476562 6.875 15.347656 15.347656 15.347656 8.476562 0 15.351562-6.871094 15.351562-15.347656v-31.488282l20.660156 19.101563v-41.800781zm0 0" fill="#ffd97d"/><path d="m408.796875 78.382812c-8.476563 0-15.347656 6.871094-15.347656 15.347657v31.484375l-20.664063-19.101563v41.804688l25.59375 23.65625c2.890625 2.671875 6.628906 4.078125 10.421875 4.078125 2.074219 0 4.167969-.421875 6.144531-1.289063 5.589844-2.441406 9.199219-7.960937 9.199219-14.058593v-66.578126c0-8.472656-6.871093-15.34375-15.347656-15.34375zm0 0" fill="#ffc247"/><g fill="#5aa2d8"><path d="m118.289062 166.667969c-30.894531 0-55.941406 25.046875-55.941406 55.941406v36.195313h72.464844v-92.136719zm0 0"/><path d="m92.304688 115.15625c0 23.476562 19.03125 42.507812 42.507812 42.507812v-85.015624c-23.476562 0-42.507812 19.03125-42.507812 42.507812zm0 0"/></g></svg>